# xmcd
#
# Track frame offsets: 
#        150
#        56232
#        85282
#        121995
#        122642
#        124145
#        125580
#        126987
#        128837
#        131022
#        133175
#        137575
#        142162
#        144640
#        146952
#        150950
#        157195
#        162372
#        164590
#        167725
#        172577
#        179607
#        188080
#        202592
#        205172
#        207967
#        209980
#        218300
#        222080
#
# Disc length: 3039 seconds
#
# Revision: 1
# Processed by: cddbd v1.5.2PL0 Copyright (c) Steve Scherf et al.
# Submitted via: ExactAudioCopy v1.3
#
DISCID=cb0bdd1d
DTITLE=Mikhail Pletnev, piano - Philharmonia Orchestra - Libor Pešek, co
DTITLE=nductor - Rachmaninov:  Piano Concerto No. 1 - Pletnev - Pešek
DYEAR=1988
DGENRE=Classical
TTITLE0=Piano Concerto No. 1 in F# minor, op. 1:  I. Vivace
TTITLE1=Piano Concerto No. 1 in F# minor, op. 1:  II. Andante
TTITLE2=Piano Concerto No. 1 in F# minor, op. 1:  III. Allegro vivace
TTITLE3=Rhapsody on a Theme of Paganini, op. 43:  Introduction:  Alleg
TTITLE3=ro vivace
TTITLE4=Rhapsody on a Theme of Paganini, op. 43:  Variation I:  (Prece
TTITLE4=dente)
TTITLE5=Rhapsody on a Theme of Paganini, op. 43:  Tema:  L'istesso tem
TTITLE5=po
TTITLE6=Rhapsody on a Theme of Paganini, op. 43:  Variation II:  L'ist
TTITLE6=esso tempo
TTITLE7=Rhapsody on a Theme of Paganini, op. 43:  Variation III:  L'is
TTITLE7=tesso tempo
TTITLE8=Rhapsody on a Theme of Paganini, op. 43:  Variation IV:  Più v
TTITLE8=ivo
TTITLE9=Rhapsody on a Theme of Paganini, op. 43:  Variation V:  Tempo 
TTITLE9=precedente
TTITLE10=Rhapsody on a Theme of Paganini, op. 43:  Variation VI:  L'is
TTITLE10=tesso tempo
TTITLE11=Rhapsody on a Theme of Paganini, op. 43:  Variation VII:  Men
TTITLE11=o mosso, a tempo moderato
TTITLE12=Rhapsody on a Theme of Paganini, op. 43:  Variation VIII:  Te
TTITLE12=mpo I
TTITLE13=Rhapsody on a Theme of Paganini, op. 43:  Variation IX:  L'is
TTITLE13=tesso tempo
TTITLE14=Rhapsody on a Theme of Paganini, op. 43:  Variation X:   ♩ =
TTITLE14=♩
TTITLE15=Rhapsody on a Theme of Paganini, op. 43:  Variation XI:  Mode
TTITLE15=rato
TTITLE16=Rhapsody on a Theme of Paganini, op. 43:  Variation XII:  Tem
TTITLE16=po di minuetto
TTITLE17=Rhapsody on a Theme of Paganini, op. 43:  Variation XIII:  Al
TTITLE17=legro
TTITLE18=Rhapsody on a Theme of Paganini, op. 43:  Variation XIV:  L'i
TTITLE18=stesso tempo
TTITLE19=Rhapsody on a Theme of Paganini, op. 43:  Variation XV:  Più 
TTITLE19=vivo.  Scherzando
TTITLE20=Rhapsody on a Theme of Paganini, op. 43:  Variation XVI:  All
TTITLE20=egretto
TTITLE21=Rhapsody on a Theme of Paganini, op. 43:  Variation XVII:  ♩ 
TTITLE21==♩
TTITLE22=Rhapsody on a Theme of Paganini, op. 43:  Variation XVIII:  A
TTITLE22=ndante cantabile
TTITLE23=Rhapsody on a Theme of Paganini, op. 43:  Variation XIX:  A t
TTITLE23=empo vivace
TTITLE24=Rhapsody on a Theme of Paganini, op. 43:  Variation XX:  Un p
TTITLE24=oco più vivo
TTITLE25=Rhapsody on a Theme of Paganini, op. 43:  Variation XXI:  Un 
TTITLE25=poco più vivo
TTITLE26=Rhapsody on a Theme of Paganini, op. 43:  Variation XXII:  Un
TTITLE26=poco più vivo - Alla breve
TTITLE27=Rhapsody on a Theme of Paganini, op. 43:  Variation XXIII:  L
TTITLE27='istesso tempo
TTITLE28=Rhapsody on a Theme of Paganini, op. 43:  Variation XXIV:  A 
TTITLE28=tempo un poco meno mosso
EXTD=
EXTT0=
EXTT1=
EXTT2=
EXTT3=
EXTT4=
EXTT5=
EXTT6=
EXTT7=
EXTT8=
EXTT9=
EXTT10=
EXTT11=
EXTT12=
EXTT13=
EXTT14=
EXTT15=
EXTT16=
EXTT17=
EXTT18=
EXTT19=
EXTT20=
EXTT21=
EXTT22=
EXTT23=
EXTT24=
EXTT25=
EXTT26=
EXTT27=
EXTT28=
PLAYORDER=
